name rise49.25peak52.1432fall72.8391.mot
datacolumns 19
datarows 18
range 8.93663500000000 8.96496100000000
endheader
time	ground_force1_vx	ground_force1_vy	ground_force1_vz	ground_force1_px	ground_force1_py	ground_force1_pz	ground_force2_vx	ground_force2_vy	ground_force2_vz	ground_force2_px	ground_force2_py	ground_force2_pz	ground_torque1_x	ground_torque1_y	ground_torque1_z	ground_torque2_x	ground_torque2_y	ground_torque2_z	
8.93663500000000	0.10201600000000	738.34389699999997	45.56736300000000	0.20397500000000	0.00000000000000	0.14775300000000	0.00000000000000	0.00000000000000	0.00000000000000	0.00000000000000	0.00000000000000	0.00000000000000	0.00000000000000	18.84489700000000	0.00000000000000	0.00000000000000	0.00000000000000	0.00000000000000	
8.93830000000000	-0.36061900000000	740.20767699999999	45.59966100000000	0.20285100000000	0.00000000000000	0.14767300000000	0.00000000000000	0.00000000000000	0.00000000000000	0.00000000000000	0.00000000000000	0.00000000000000	0.00000000000000	18.91590400000000	0.00000000000000	0.00000000000000	0.00000000000000	0.00000000000000	
8.93996500000000	-0.82694500000000	742.06169899999998	45.63834300000000	0.20171700000000	0.00000000000000	0.14759600000000	0.00000000000000	0.00000000000000	0.00000000000000	0.00000000000000	0.00000000000000	0.00000000000000	0.00000000000000	18.98925800000000	0.00000000000000	0.00000000000000	0.00000000000000	0.00000000000000	
8.94163400000000	-1.29659300000000	743.90381500000001	45.68328200000000	0.20057300000000	0.00000000000000	0.14752300000000	0.00000000000000	0.00000000000000	0.00000000000000	0.00000000000000	0.00000000000000	0.00000000000000	0.00000000000000	19.06484000000000	0.00000000000000	0.00000000000000	0.00000000000000	0.00000000000000	
8.94329900000000	-1.76917100000000	745.73194200000000	45.73434200000000	0.19942200000000	0.00000000000000	0.14745300000000	0.00000000000000	0.00000000000000	0.00000000000000	0.00000000000000	0.00000000000000	0.00000000000000	0.00000000000000	19.14252600000000	0.00000000000000	0.00000000000000	0.00000000000000	0.00000000000000	
8.94496200000000	-2.24427500000000	747.54406300000005	45.79138400000000	0.19826600000000	0.00000000000000	0.14738600000000	0.00000000000000	0.00000000000000	0.00000000000000	0.00000000000000	0.00000000000000	0.00000000000000	0.00000000000000	19.22219000000000	0.00000000000000	0.00000000000000	0.00000000000000	0.00000000000000	
8.94663600000000	-2.72148400000000	749.33823400000006	45.85426200000000	0.19710700000000	0.00000000000000	0.14732200000000	0.00000000000000	0.00000000000000	0.00000000000000	0.00000000000000	0.00000000000000	0.00000000000000	0.00000000000000	19.30370200000000	0.00000000000000	0.00000000000000	0.00000000000000	0.00000000000000	
8.94829600000000	-3.20036700000000	751.11257899999998	45.92282400000000	0.19594500000000	0.00000000000000	0.14726100000000	0.00000000000000	0.00000000000000	0.00000000000000	0.00000000000000	0.00000000000000	0.00000000000000	0.00000000000000	19.38693000000000	0.00000000000000	0.00000000000000	0.00000000000000	0.00000000000000	
8.94996100000000	-3.68048400000000	752.86529499999995	45.99691600000000	0.19478300000000	0.00000000000000	0.14720200000000	0.00000000000000	0.00000000000000	0.00000000000000	0.00000000000000	0.00000000000000	0.00000000000000	0.00000000000000	19.47173900000000	0.00000000000000	0.00000000000000	0.00000000000000	0.00000000000000	
8.95163300000000	-4.16139200000000	754.59465100000000	46.07637600000000	0.19362200000000	0.00000000000000	0.14714700000000	0.00000000000000	0.00000000000000	0.00000000000000	0.00000000000000	0.00000000000000	0.00000000000000	0.00000000000000	19.55799100000000	0.00000000000000	0.00000000000000	0.00000000000000	0.00000000000000	
8.95329800000000	-4.64264200000000	756.29899100000000	46.16104100000000	0.19246400000000	0.00000000000000	0.14709400000000	0.00000000000000	0.00000000000000	0.00000000000000	0.00000000000000	0.00000000000000	0.00000000000000	0.00000000000000	19.64554900000000	0.00000000000000	0.00000000000000	0.00000000000000	0.00000000000000	
8.95496500000000	-5.12378700000000	757.97673399999996	46.25074200000000	0.19131200000000	0.00000000000000	0.14704400000000	0.00000000000000	0.00000000000000	0.00000000000000	0.00000000000000	0.00000000000000	0.00000000000000	0.00000000000000	19.73427300000000	0.00000000000000	0.00000000000000	0.00000000000000	0.00000000000000	
8.95662700000000	-5.60438300000000	759.62637400000006	46.34530700000000	0.19016500000000	0.00000000000000	0.14699600000000	0.00000000000000	0.00000000000000	0.00000000000000	0.00000000000000	0.00000000000000	0.00000000000000	0.00000000000000	19.82402300000000	0.00000000000000	0.00000000000000	0.00000000000000	0.00000000000000	
8.95829700000000	-6.08399200000000	761.24648400000001	46.44456400000000	0.18902700000000	0.00000000000000	0.14695000000000	0.00000000000000	0.00000000000000	0.00000000000000	0.00000000000000	0.00000000000000	0.00000000000000	0.00000000000000	19.91465800000000	0.00000000000000	0.00000000000000	0.00000000000000	0.00000000000000	
8.95996000000000	-6.56218200000000	762.83570899999995	46.54833300000000	0.18789800000000	0.00000000000000	0.14690600000000	0.00000000000000	0.00000000000000	0.00000000000000	0.00000000000000	0.00000000000000	0.00000000000000	0.00000000000000	20.00603900000000	0.00000000000000	0.00000000000000	0.00000000000000	0.00000000000000	
8.96163300000000	-7.03853500000000	764.39277500000003	46.65643700000000	0.18678100000000	0.00000000000000	0.14686500000000	0.00000000000000	0.00000000000000	0.00000000000000	0.00000000000000	0.00000000000000	0.00000000000000	0.00000000000000	20.09802500000000	0.00000000000000	0.00000000000000	0.00000000000000	0.00000000000000	
8.96329800000000	-7.51264400000000	765.91648399999997	46.76869400000000	0.18567500000000	0.00000000000000	0.14682600000000	0.00000000000000	0.00000000000000	0.00000000000000	0.00000000000000	0.00000000000000	0.00000000000000	0.00000000000000	20.19047800000000	0.00000000000000	0.00000000000000	0.00000000000000	0.00000000000000	
8.96496100000000	-7.98411800000000	767.40571499999999	46.88492100000000	0.18458300000000	0.00000000000000	0.14678800000000	0.00000000000000	0.00000000000000	0.00000000000000	0.00000000000000	0.00000000000000	0.00000000000000	0.00000000000000	20.28326100000000	0.00000000000000	0.00000000000000	0.00000000000000	0.00000000000000	
